# xmcd CD database file
#
# Track frame offsets:
#	150
#	19698
#	36395
#	55075
#	72051
#	86344
#	100011
#	117475
#	132711
#	154742
#	165261
#
# Disc length: 2435 seconds
#
# Revision: 0
# Processed by: cddbd v1.5.1PL2 Copyright (c) Steve Scherf et al.
# Submitted via: CDex 1.51
#
DISCID=8709810b
DTITLE=Roger Cotton and Alan Glen - Born In Black And White
DYEAR=2003
DGENRE=Blues
TTITLE0=Blow Diddley
TTITLE1=Hard Life
TTITLE2=Jam For T
TTITLE3=On The Waterfront
TTITLE4=Crazy Life
TTITLE5=Maxwell Street Mood
TTITLE6=Another Kinda Love
TTITLE7=The Purple Cat
TTITLE8=I Don't Want Your Love
TTITLE9=Smitty's Corner
TTITLE10=Fat Tuesday
EXTD=YEAR: 2003
EXTT0=
EXTT1=
EXTT2=
EXTT3=
EXTT4=
EXTT5=
EXTT6=
EXTT7=
EXTT8=
EXTT9=
EXTT10=
PLAYORDER=
